<svg xmlns="http://www.w3.org/2000/svg" viewBox="0 0 473.677 473.677" style="enable-background:new 0 0 473.677 473.677" xml:space="preserve"><path style="fill:#6bbdc6" d="M236.838 0C158.625 0 89.29 37.934 46.165 96.384l.744-.157L57.032 89.9l4.431-5.695 4.428-2.532 7.591 1.264 9.491-3.164 3.799-.632 5.063 2.532 5.523 3.822c1.144-1.754 2.995-3.994 4.6-3.194 2.528 1.264 3.796 5.063 5.063 7.595 1.264 2.528 3.164 8.223 5.063 10.755 1.9 2.532 7.591 5.063 7.591 5.063l5.692 9.495s3.556 4.618 5.336 8.799a24.627 24.627 0 0 1-.06-1.84l2.812 1.522 10.265-3.422s9.491-6.959 11.391-6.959c1.896 0 6.956-.632 8.855.636 1.9 1.264 7.595 3.796 9.491 2.532 1.9-1.264 5.063 1.896 8.227 1.896 0 0 8.859-5.063 10.755.632s3.164 10.123 5.06 11.387c1.9 1.264 5.695 8.859 5.695 8.859s.666 1.937 1.586 4.753c3.583.972 8.661 2.711 11.697 5.374 1.488 1.305 2.629 2.659 3.609 3.994 3.575-4.772 12.049-15.471 17.909-17.916 0 0 13.919 6.327 17.082 10.755l13.287 9.491s13.287-15.815 15.818-17.714c2.528-1.9 6.956-5.063 6.956-5.063s6.327 6.959 10.755 10.755c3.485 2.984 2.685 5.183 6.787 5.987 11.454-.097 24.603-2.816 30.354-3.568 9.704-1.264 15.186-6.114 17.296-7.591 2.109-1.477 14.973-5.905 17.718-7.173 2.741-1.264 6.537-1.055 8.436-1.055 1.896 0 9.278-3.799 13.496-5.482 4.218-1.687 10.968-7.382 12.232-7.169 1.264.209 2.528-.423 3.373-.845.845-.423 2.105-1.687 4.641-1.477 2.532.213 7.303 2.412 7.303 2.412l.254 1.784c3.889 2.352 5.729 4.042 7.18 6.462 1.9 3.164 7.595 15.186 12.023 18.35s5.692 4.431 10.123 5.063c.565.079 1.713-.43 3.272-1.376C421.244 61.228 336.218 0 236.838 0z"/><path style="fill:#27726c" d="M323.888 323.825c-50.451-3.313-94.989-5.823-114.289-5.823-31.611 0-120.44 1.036-185.999 1.859-2.842.251-5.606.49-8.321.718 3.751 9.917 8.111 19.532 13.103 28.761 21.888 40.466 55.204 73.845 95.636 95.789 33.54 18.208 71.972 28.548 112.815 28.548 40.847 0 79.279-10.344 112.819-28.548 40.432-21.948 73.748-55.323 95.636-95.789a229.596 229.596 0 0 0 4.603-8.99c-43.927-4.17-103.543-10.587-126.003-16.525z"/><path style="fill:#27726c" d="M323.888 323.825c-50.451-3.313-94.989-5.823-114.289-5.823-31.611 0-120.44 1.036-185.999 1.859-2.842.251-5.606.49-8.321.718 3.751 9.917 8.111 19.532 13.103 28.761 21.888 40.466 55.204 73.845 95.636 95.789 33.54 18.208 71.972 28.548 112.815 28.548 40.847 0 79.279-10.344 112.819-28.548 40.432-21.948 73.748-55.323 95.636-95.789a229.596 229.596 0 0 0 4.603-8.99c-43.927-4.17-103.543-10.587-126.003-16.525z"/><path style="fill:#27726c" d="M323.888 323.825c-50.451-3.313-94.989-5.823-114.289-5.823-31.611 0-120.44 1.036-185.999 1.859-2.842.251-5.606.49-8.321.718 3.751 9.917 8.111 19.532 13.103 28.761 21.888 40.466 55.204 73.845 95.636 95.789 33.54 18.208 71.972 28.548 112.815 28.548 40.847 0 79.279-10.344 112.819-28.548 40.432-21.948 73.748-55.323 95.636-95.789a229.596 229.596 0 0 0 4.603-8.99c-43.927-4.17-103.543-10.587-126.003-16.525z"/><path style="fill:#27726c" d="M323.888 323.825c-50.451-3.313-94.989-5.823-114.289-5.823-31.611 0-120.44 1.036-185.999 1.859-2.842.251-5.606.49-8.321.718 3.751 9.917 8.111 19.532 13.103 28.761 21.888 40.466 55.204 73.845 95.636 95.789 33.54 18.208 71.972 28.548 112.815 28.548 40.847 0 79.279-10.344 112.819-28.548 40.432-21.948 73.748-55.323 95.636-95.789a229.596 229.596 0 0 0 4.603-8.99c-43.927-4.17-103.543-10.587-126.003-16.525z"/><path style="fill:#27726c" d="M323.888 323.825c-50.451-3.313-94.989-5.823-114.289-5.823-31.611 0-120.44 1.036-185.999 1.859-2.842.251-5.606.49-8.321.718 3.751 9.917 8.111 19.532 13.103 28.761 21.888 40.466 55.204 73.845 95.636 95.789 33.54 18.208 71.972 28.548 112.815 28.548 40.847 0 79.279-10.344 112.819-28.548 40.432-21.948 73.748-55.323 95.636-95.789a229.596 229.596 0 0 0 4.603-8.99c-43.927-4.17-103.543-10.587-126.003-16.525z"/><path style="fill:#27726c" d="M315.912 320.848c-13.384-9.199-3.796-16.136-3.796-16.136 2.363-6.918-113.87-8.257-146.371-8.493-10.321.931-24.049 2.438-38.282 4.783 1.582 5.392 2.962 9.087 2.962 9.087l-4.716-.396c-10.946 1.174-61.909 6.612-102.105 10.168 65.558-.823 154.388-1.859 185.999-1.859 19.3 0 63.838 2.505 114.289 5.823-3.822-1.01-6.57-2.005-7.98-2.977z"/><path style="fill:#27726c" d="M315.912 320.848c-13.384-9.199-3.796-16.136-3.796-16.136 2.363-6.918-113.87-8.257-146.371-8.493-10.321.931-24.049 2.438-38.282 4.783 1.582 5.392 2.962 9.087 2.962 9.087l-4.716-.396c-10.946 1.174-61.909 6.612-102.105 10.168 65.558-.823 154.388-1.859 185.999-1.859 19.3 0 63.838 2.505 114.289 5.823-3.822-1.01-6.57-2.005-7.98-2.977z"/><path style="fill:#27726c" d="M315.912 320.848c-13.384-9.199-3.796-16.136-3.796-16.136 2.363-6.918-113.87-8.257-146.371-8.493-10.321.931-24.049 2.438-38.282 4.783 1.582 5.392 2.962 9.087 2.962 9.087l-4.716-.396c-10.946 1.174-61.909 6.612-102.105 10.168 65.558-.823 154.388-1.859 185.999-1.859 19.3 0 63.838 2.505 114.289 5.823-3.822-1.01-6.57-2.005-7.98-2.977z"/><path style="fill:#27726c" d="M315.912 320.848c-13.384-9.199-3.796-16.136-3.796-16.136 2.363-6.918-113.87-8.257-146.371-8.493-10.321.931-24.049 2.438-38.282 4.783 1.582 5.392 2.962 9.087 2.962 9.087l-4.716-.396c-10.946 1.174-61.909 6.612-102.105 10.168 65.558-.823 154.388-1.859 185.999-1.859 19.3 0 63.838 2.505 114.289 5.823-3.822-1.01-6.57-2.005-7.98-2.977z"/><path style="fill:#1d5e58" d="M315.912 320.848c-13.384-9.199-3.796-16.136-3.796-16.136 2.363-6.918-113.87-8.257-146.371-8.493-10.321.931-24.049 2.438-38.282 4.783 1.582 5.392 2.962 9.087 2.962 9.087l-4.716-.396c-10.946 1.174-61.909 6.612-102.105 10.168 65.558-.823 154.388-1.859 185.999-1.859 19.3 0 63.838 2.505 114.289 5.823-3.822-1.01-6.57-2.005-7.98-2.977z"/><path style="fill:#27726c" d="M182.846 283.149c2.322.116 4.652.273 6.922.467.18-.198.404-.464.666-.778a422.43 422.43 0 0 1-7.588.311z"/><path style="fill:#27726c" d="M182.846 283.149c2.322.116 4.652.273 6.922.467.18-.198.404-.464.666-.778a422.43 422.43 0 0 1-7.588.311z"/><path style="fill:#27726c" d="M182.846 283.149c2.322.116 4.652.273 6.922.467.18-.198.404-.464.666-.778a422.43 422.43 0 0 1-7.588.311z"/><path style="fill:#27726c" d="M182.846 283.149c2.322.116 4.652.273 6.922.467.18-.198.404-.464.666-.778a422.43 422.43 0 0 1-7.588.311z"/><path style="fill:#1d5e58" d="M182.846 283.149c2.322.116 4.652.273 6.922.467.18-.198.404-.464.666-.778a422.43 422.43 0 0 1-7.588.311z"/><path style="fill:#8f8377" d="M362.597 263.434c.61.696 1.163 1.369 1.649 2.008 14.439-3.171 30.896-7.588 40.982-10.504l-42.631 8.496zm-35.392 49.819s-5.063-8.859-2.532-15.186a17.956 17.956 0 0 1 2.595-4.465c-10.901-.123-47.451-.497-57.646.037-10.736.565-64.343.625-86.956.632.31.217.643.441.909.632 0 0-7.06.344-17.83 1.316 32.501.239 148.734 1.578 146.371 8.493 0 0-9.585 6.937 3.796 16.136 1.41.969 4.158 1.963 7.977 2.973 22.456 5.938 82.072 12.356 126.009 16.525 1.182-2.431 2.285-4.906 3.388-7.382.755-1.705 1.529-3.399 2.247-5.12-46.068-1.719-112.58-5.706-128.328-14.591z"/><path style="fill:#fffffd" d="M470.924 200.624c-1.529-.157-2.528.583-1.357 2.532 1.081 1.799 1.761 4.013 2.487 6.279-.34-2.947-.681-5.894-1.13-8.811zm2.57 28.806c-.037-1.286-.037-2.58-.097-3.859a10.786 10.786 0 0 1-2.562-.266c-5.523-1.227-5.714-.116-8.601-3.504-.09-.105-.161-.176-.258-.292-3.164-3.796-.632-8.855-5.695-5.692-5.063 3.164-3.16 6.327-5.692 8.227-2.528 1.896-3.164 5.06-6.959 6.959-3.799 1.896-5.063 3.164-9.491 3.164s-6.959 6.327-10.123 1.896c-3.164-4.431-1.264-6.324-5.695-5.695-4.431.636 1.264-.628-4.431.636-5.692 1.264-1.896 5.692-5.692 1.264-3.796-4.431 0-3.167-3.796-4.431s-5.063-1.896-7.595.636c-2.528 2.532 3.167 2.532-2.528 2.532-5.692 0-9.491-1.264-12.023-3.799-2.528-2.532-6.959-6.327-6.959-6.327l-6.959 6.959s-10.755 3.796-14.554 3.167c-3.799-.636-8.227-1.264-11.387-5.695-3.167-4.428-4.431-3.16-3.167-7.591l1.264-4.431c1.268-4.431-2.528-3.796-2.528-3.796s-8.986 5.138-14.996 9.779c.632 2.064 1.077 4.005 1.077 5.404 0 3.646.654 12.195 1.021 16.701 6.649 3.022 12.651 5.441 14.794 5.441 4.237 0 15.358 8.582 21.817 15.583.325.355.621.696.92 1.036l42.631-8.493c3.616-1.043 6.454-1.903 8.025-2.427 4.424-1.477 27.157-7.528 48.977-12.494a719.845 719.845 0 0 1 11.432-2.513c0-.224.015-.441.015-.666.002-2.488-.111-4.948-.185-7.413z"/><path style="fill:#aca6a6" d="M472.054 209.439c-.725-2.266-1.406-4.48-2.487-6.279-1.17-1.948-.168-2.692 1.358-2.532-.471-3.081-1.047-6.129-1.638-9.169a234.627 234.627 0 0 0-7.057-27.415 236.314 236.314 0 0 0-5.841-16.043c-1.559.946-2.711 1.458-3.272 1.376-4.431-.632-5.695-1.9-10.123-5.063-4.431-3.164-10.123-15.186-12.023-18.35-1.451-2.42-3.291-4.106-7.18-6.462l.696 4.861-3.799 5.695s-8.541 0-18.032 6.641c-9.495 6.645-9.495 8.545-9.495 8.545s-12.337 9.491-16.133 12.341c-3.799 2.846-7.595 6.641-13.29 11.391-5.695 4.746-15.19-2.85-15.19-2.85s-5.692-2.85-14.237-.95c-8.545 1.9 0 0-6.645 4.749-6.645 4.746-17.086 1.896-17.086 1.896-3.25-4.177-8.747-22.138-2.547-22.138.213 0 .434-.015.647-.019-4.102-.804-3.306-3.003-6.787-5.987-4.428-3.796-10.755-10.755-10.755-10.755s-4.428 3.164-6.956 5.063c-2.532 1.896-15.818 17.714-15.818 17.714l-13.287-9.491c3.164 4.428 1.9 15.186 6.327 20.878 4.428 5.695 5.692 8.863 10.123 11.391 4.428 2.532 5.692 4.431 10.123 5.695 4.428 1.264 4.428 0 11.387 2.532 6.963 2.532 10.123 5.063 13.919 5.063 3.799 0 5.695 2.532 7.591 5.695.355.591.703 1.331 1.043 2.113 1.492 3.422 2.752 8.01 2.752 8.01s2.969 6.282 4.618 11.679c6.006-4.641 14.996-9.779 14.996-9.779s3.796-.632 2.528 3.796l-1.264 4.431c-1.264 4.431 0 3.164 3.167 7.591 3.164 4.431 7.591 5.063 11.387 5.695 3.796.628 14.554-3.167 14.554-3.167l6.959-6.959s4.431 3.796 6.959 6.327c2.532 2.532 6.327 3.799 12.023 3.799 5.695 0 0 0 2.528-2.532 2.532-2.532 3.799-1.9 7.595-.636 3.796 1.264 0 0 3.796 4.431 3.799 4.428 0 0 5.692-1.264 5.695-1.264 0 0 4.431-.636 4.431-.628 2.532 1.264 5.695 5.695 3.164 4.431 5.692-1.896 10.123-1.896 4.431 0 5.692-1.264 9.491-3.164 3.796-1.9 4.431-5.063 6.959-6.959 2.532-1.896.632-5.063 5.692-8.227 5.063-3.164 2.535 1.9 5.695 5.692.097.116.165.187.258.292 2.887 3.388 3.081 2.277 8.601 3.504.998.224 1.817.273 2.562.266-.245-5.426-.72-10.796-1.333-16.125z"/><path style="fill:#3c3b40" d="M324.042 224.674c0-1.402-.445-3.339-1.077-5.404-1.649-5.396-4.618-11.679-4.618-11.679s-1.26-4.592-2.752-8.01c-.34-.782-.692-1.526-1.043-2.113-1.896-3.164-3.796-5.695-7.591-5.695s-6.956-2.532-13.919-5.063c-6.959-2.532-6.959-1.264-11.387-2.532-4.431-1.264-5.695-3.164-10.123-5.695-4.431-2.528-5.695-5.692-10.123-11.391-4.431-5.692-3.167-16.45-6.327-20.878-3.164-4.431-17.082-10.755-17.082-10.755-5.856 2.442-14.334 13.141-17.909 17.916 2.341 3.194 3.654 6.241 5.886 8.029 3.164 2.532 11.387 7.591 11.387 7.591s8.227 5.063 10.755 8.223c2.532 3.164 5.06.632 5.06 6.331 0 4.551 32.359 29.733 45.649 41.906 2.977 2.726 4.985 4.794 5.467 5.834 4.443 2.259 13.04 6.574 20.773 10.086-.372-4.51-1.026-13.055-1.026-16.701z"/><path style="fill:#797979" d="M314.233 268.636h-.912c.31.037.632.079.954.116l-.042-.116z"/><path style="fill:#797979" d="M362.597 263.434c-.303-.344-.595-.684-.92-1.036-6.458-7.001-17.58-15.583-21.817-15.583-2.143 0-8.145-2.42-14.794-5.441-7.733-3.511-16.334-7.827-20.773-10.086.056.123.123.251.135.344.202 1.421-1.163 2.513-3.104 3.347-4.11 1.761-10.819 2.348-10.819 2.348L259.5 224.042l-5.187-2.797-29.139-15.721c.987 2.016 2.304 4.566 3.627 7.244.299.314.471.699.509 1.025 2.027 4.14 3.934 8.388 4.454 11.092 1.055 5.482 8.646 16.237 10.546 18.773 1.896 2.528 17.714 12.655 13.919 17.082-.853.995-2.158 2.296-3.695 3.713 2.397-.015 4.33-.55 4.33-.55s-6.327-3.796 6.959-3.796c13.287 0 17.718-1.264 24.045 0 6.327 1.264 12.019 5.695 15.186 6.959 1.043.415 4.035 1.036 8.264 1.571h.912l.045.116c1.933.228 4.069.438 6.413.598 3.22.221 6.78.352 10.527.337 5.063-.019 10.471-.325 15.893-1.051.744-.101 1.492-.191 2.236-.307 4.372-.684 9.499-1.702 14.898-2.887a35.761 35.761 0 0 0-1.645-2.009z"/><path style="fill:#686867" d="M304.289 231.289c-.482-1.04-2.491-3.108-5.467-5.834-13.287-12.172-45.649-37.355-45.649-41.906 0-5.695-2.528-3.167-5.06-6.331-2.532-3.164-10.755-8.223-10.755-8.223s-8.223-5.063-11.387-7.591c-2.233-1.788-3.541-4.835-5.886-8.029-.98-1.331-2.117-2.689-3.609-3.994-3.04-2.659-8.115-4.401-11.697-5.374 1.918 5.882 2.752 16.088 3.179 20.366.632 6.327 2.797 16.791 3.429 19.322.441 1.769 4.805 9.816 7.169 15.583 1.021 2.491 1.608 3.96 2.18 5.299.273.639 4.005.049 4.446.95l29.139 15.721 5.187 2.797 31.005 13.287s6.709-.587 10.819-2.348c1.941-.834 3.306-1.926 3.104-3.347-.023-.098-.091-.228-.147-.348z"/><path style="fill:#6d6d6c" d="M137.175 131.663c-1.369-2.319-4.323-1.896-4.323-1.896-.535-1.384-.954-2.143-1.286-2.756.041.288.127.598.127.856 0 3.676 1.298 6.058 2.468 8.567.804-1.409 3.366-4.18 3.014-4.771zm92.139 82.128c.004.037.026.086.026.123 0 .632 1.477 4.218 1.477 4.218l2.954 6.75c-.519-2.703-2.43-6.951-4.457-11.091zm-37.724 62.975c-1.687-.845-.632 1.9-3.373-.845-2.741-2.741-3.586-2.319-3.796-5.06-.079-1.002-.325-1.679-.632-2.225-.535-.95-1.309-1.361-2.109-1.361-1.264 0-6.537-.632-6.537-.632s-15.4-13.074-18.986-14.341c-3.586-1.264-9.491-5.486-13.496-5.695-4.009-.209-4.431.632-6.959-.209-.52-.172-1.679-1.013-3.171-2.244 3.983 4.446 9.285 12.449 10.59 24.483.079.744.108 1.537.157 2.311 7.3 4.121 14.416 8.182 20.687 11.843 4.697-.034 11.727 0 18.881.359a396.72 396.72 0 0 0 7.588-.314c.108-.131.187-.221.31-.374 2.532-3.164 2.536-4.851.846-5.696zm52.728-33.11c-1.9-2.532-9.491-13.29-10.546-18.773l-4.637 2.951-.845 4.854v7.801l-2.109 6.959s-2.532 2.954-1.264 3.796c1.264.845 1.896 4.218 1.896 4.218s-.209 2.322 2.741 3.586c2.954 1.264 3.164 2.532 4.218 2.951 1.055.423 3.377 0 3.164 1.69-.209 1.687-1.477 3.373-1.477 3.373s-.729.875-1.907 1.571c-.546.322-1.156.613-1.888.748-2.319.423-.845 1.477-4.637.632-3.62-.804-3.063.838-5.74-1.38-.131-.108-.232-.179-.381-.31 0 0-2.109-3.164-1.055-4.218 1.055-1.055 3.582-1.687 4.009-3.373.419-1.687-1.477-4.218-1.477-5.909 0-1.687 2.532-8.859 3.373-11.178.841-2.319.845-10.123.845-10.123l-2.322 2.741-3.164-1.477s-1.9 3.16-3.377 3.796c-1.477.632-2.741 4.005-4.85 4.218-2.109.209-4.431 0-7.591-1.9-3.167-1.9-3.377-3.586-5.063-2.532-1.687 1.055 2.109 3.373 1.055 3.796-1.055.423 1.264 3.164-3.164 1.477s-4.85-4.431-5.486-5.695c-.636-1.264.845-.423-2.951-.423-3.796 0-2.532-.209-5.909-.209-3.373 0-4.641 1.687-6.327.423-1.687-1.268 1.264-4.009-2.741-1.9-4.009 2.109-4.009 3.164-5.482 4.009-1.477.841-.213 3.164-3.164 1.477-2.954-1.69-3.377-1.055-4.85-2.954-1.473-1.9-4.428-4.641-4.428-4.641s-1.687-4.85-2.741-5.273c-1.055-.423-.845 1.69-3.373.845-2.532-.845-4.85-1.055-6.118-1.9-1.264-.845-3.373-1.055-3.373-4.005 0-2.951 1.69-2.954-.632-3.796s-3.164-.632-4.431-1.264c-1.264-.632-2.741-1.058-2.741-1.058s-4.428 2.532-6.327 2.532-5.063.213-3.799 3.164c1.264 2.954 7.173 10.755 10.336 11.813 3.16 1.051 7.591 6.114 11.81 7.378 4.218 1.268 12.655 7.173 14.977 8.018 2.319.841 24.042 9.278 24.042 9.278l14.973 4.428s3.164-1.896 6.114-1.051c2.954.845 2.322.632 5.063 1.896 1.492.688 4.155 2.363 6.623 3.893 2.075 1.286 4.013 2.472 4.977 2.857 2.109.845 7.804.845 10.755.845 2.954 0 5.905-.209 4.005 2.532-.733 1.062-1.339 2.019-1.945 2.879 7.367-3.078 9.297-6.742 9.151-9.11-.064-1.032-.516-1.821-1.088-2.203-1.021-.681.179-1.713 2.072-2.337 1.63-.539 3.766-.778 5.523-.194 1.294.434 2.655.557 3.897.55 1.537-1.417 2.846-2.719 3.695-3.713 3.8-4.422-12.018-14.548-13.914-17.076zm-16.664-31.428c.482 0 .864.236 1.152.538-1.324-2.674-2.64-5.228-3.627-7.244a53.08 53.08 0 0 1-1.111-2.363 463.371 463.371 0 0 1-2.513-6.032c-2.363-5.766-5.269-13.081-5.71-14.85-.632-2.528-5.063-12.019-5.695-18.346-.426-4.278-3.455-14.042-5.374-19.924-.92-2.812-1.586-4.753-1.586-4.753s-3.799-7.595-5.695-8.859c-1.896-1.264-3.164-5.692-5.06-11.387-1.9-5.695-10.755-.632-10.755-.632-3.164 0-6.327-3.16-8.227-1.896-1.896 1.264-7.591-1.264-9.491-2.532-1.896-1.268-6.956-.636-8.855-.636s-11.391 6.959-11.391 6.959l-10.265 3.422 2.251 1.219s-1.9-.209.632 1.264c0 0 2.322 1.477 2.741 0 0 0 1.687.423 2.319.845.632.423 2.741 1.055 3.373 1.268.632.209.849 1.264.632 2.105-.213.845-.213 3.796-.213 3.796l2.109 2.322 2.532 2.319s6.118.423 5.909 1.9c-.213 1.477-.213 1.9-2.109 2.322-1.9.423-3.586 1.896-3.586 1.896s.209 1.69 1.264 2.326c1.055.632 5.695 1.051 5.695 1.051l-2.532 2.532-3.799 4.641s2.322 3.164 3.586 6.114c1.264 2.954 5.695 11.178 7.169 13.919 1.477 2.741 4.009 6.75 5.695 7.804 1.687 1.051 3.164 2.741 4.846 4.005 1.69 1.264 3.377 2.954 3.377 2.954s3.373 3.373 4.009 3.586c.632.209 10.755.209 10.755.209l-2.109 3.164s2.532 3.164 8.014 2.322l6.114 4.218s-3.583 1.896-1.477 4.005c2.105 2.109 6.537 4.854 6.537 4.854s6.118 2.528 6.118 1.051c0-1.473-3.373-1.896-1.268-2.528 2.109-.632 2.109-.209 3.796.419l.086.034c1.634.625 2.666 1.242 3.287 1.653.632.419 4.85 4.431 6.118 3.164 1.264-1.264 2.105-2.741 2.105-2.741s-.828-1.477.227-1.477z"/><path style="fill:#fffffd" d="m91.833 81.676-5.063-2.532-3.799.632-9.491 3.164-7.591-1.264-4.428 2.532-4.431 5.695-10.123 6.327 17.714 1.264.636-4.428 9.491 1.9 8.223-6.959 5.695-.632h7.595s.43-.856 1.092-1.87l-5.52-3.829z"/><path style="fill:#797979" d="M38.682 121.749h-8.833c-.404.725-.845 1.429-1.242 2.158 2.139-.415 4.162-.894 6.066-.894 2.532 0 5.064-1.264 4.009-1.264z"/><path style="fill:#fffffd" d="M116.084 119.218c-.632-.213-6.114-1.055-7.382-1.055s-6.114 1.896-6.114 1.896l-6.327 2.532c-.632 1.264 5.063-.209 8.436-1.055 3.373-.841 3.796-1.477 4.641-1.264.845.213 5.905-.213 7.378-.841 1.477-.636 0 0-.632-.213z"/><path style="fill:#272d17" d="M462.234 240.021c-21.82 4.966-44.553 11.017-48.977 12.494-1.571.524-4.409 1.384-8.025 2.427-10.089 2.913-26.547 7.333-40.982 10.504-5.4 1.185-10.527 2.203-14.898 2.887-.744.116-1.492.206-2.236.307-5.419.725-10.83 1.028-15.893 1.051-3.751.015-7.311-.116-10.527-.337-2.341-.161-4.48-.37-6.413-.598-.322-.037-.643-.079-.954-.116-4.229-.535-7.221-1.156-8.264-1.571-3.164-1.264-8.859-5.695-15.186-6.959s-10.755 0-24.045 0c-13.29 0-6.959 3.796-6.959 3.796s-1.933.539-4.33.55c-1.242.004-2.599-.12-3.897-.55-1.754-.583-3.893-.344-5.523.194-1.892.625-3.093 1.657-2.072 2.337.572.381 1.025 1.171 1.088 2.203.15 2.367-1.784 6.032-9.151 9.11 0 0 0 .004-.004.004-.049.019-.108.052-.157.067-10.755 4.431-24.677 8.223-39.864 6.327a128.884 128.884 0 0 0-5.194-.531c-2.27-.194-4.6-.348-6.922-.467-7.158-.359-14.184-.393-18.881-.359.239.138.471.277.707.415-2.221-.079-4.387-.172-6.402-.325l16.334 10.501 1.384.89h6.686c22.613-.007 76.22-.067 86.956-.632 10.194-.535 46.745-.161 57.646-.037 2.405-3.059 5-4.39 5-4.39s29.042-11.417 52.608-20.571c14.057-5.46 26.173-10.119 29.008-11.062 3.392-1.129 17.419-5.961 33.525-11.039a896.7 896.7 0 0 1 14.82-4.536c3.863-1.144 7.7-2.247 11.402-3.261.004-.411.03-.819.03-1.234-3.72.779-7.564 1.628-11.438 2.511z"/><path style="fill:#fffffd" d="M107.857 126.603c-1.051-.423-1.896-.845-3.16-.845-1.264 0-3.373.845-3.373.845s-2.532 1.264-4.009 1.687c-1.477.423-3.16.841-5.482.841-2.319 0-2.741 1.055-4.85 1.69-2.109.632-1.9.209-2.954-.213-1.055-.423-.213-1.055-3.377-1.264-3.16-.213-5.269 1.264-6.537 1.264-1.264 0-4.218-.213-5.273-.213s-2.741 0-4.641-.419c-1.9-.423-3.164-1.466-4.428-1.687-3.586-.636-.632 1.687 0 2.105.632.423 3.373 1.69 4.641 2.109 1.268.419 4.005 1.264 6.327 1.264 2.319 0 2.109 0 4.85-.423 2.741-.423 2.741-.845 3.586-.845.845 0 1.896.209 3.796.209s2.954-.423 5.277-.845c2.319-.419 1.896 0 5.063 0 3.16 0 2.319-.841 3.796-1.477 1.477-.632 2.109-1.055 4.85-1.687s2.528-.423 4.005-.423 2.954 0 3.796-.423c.842-.408-.845-.831-1.903-1.25zm-45.343 9.278c-1.687-.845-6.114-2.741-7.382-2.954-1.264-.213-6.327-2.322-6.118-.213 0 0 13.496 5.277 14.764 6.541 1.268 1.267.423-2.529-1.264-3.374z"/><path style="fill:#797979" d="M149.198 185.442c-1.264-2.319 4.431-7.169 4.431-9.278s-1.9-4.431-2.741-6.75c-.845-2.322-2.109-3.799-3.164-6.118a241.424 241.424 0 0 0-2.823-5.92 19.02 19.02 0 0 1-.942-1.911 258.448 258.448 0 0 0-2.139-4.188c-1.047-2.004-6.114-8.65-7.909-14.132-.045-.138.075-.4.251-.711-1.17-2.509-2.468-4.891-2.468-8.567 0-.262-.086-.572-.127-.856-.411-.752-.677-1.301-.811-2.416-.022-.172-.037-.378-.052-.583-1.78-4.181-5.336-8.799-5.336-8.799l-5.692-9.495s-5.692-2.532-7.591-5.063c-1.896-2.532-3.796-8.227-5.063-10.755-1.268-2.532-2.532-6.327-5.063-7.595-1.604-.8-3.455 1.44-4.6 3.194a21.208 21.208 0 0 0-1.092 1.87h-7.595L82.974 88l-8.223 6.959-9.491-1.9-.636 4.428-17.714-1.264-.744.157c-5.482 7.427-10.508 15.205-15.104 23.26.86.116 1.72.206 2.562.206 2.741 0 3.164-1.896 8.436-2.322 5.277-.419 7.386-.632 7.386-.632s2.951.423 5.273 1.69c2.319 1.264 2.319 1.264 5.063 1.687 2.741.423 4.218 1.264 6.327 1.69 2.109.423 6.114 1.473 6.114 1.473s4.85.636 5.482 1.058c.632.419 1.9 1.264 1.9 1.896s.632 1.055-1.055 1.055-3.583.209-4.637-.209c-1.055-.423-3.377-1.055-5.695-1.896-2.322-.845-5.277-1.264-6.75-1.477-1.477-.209-2.741-.423-4.005-.632-1.268-.213-2.109-1.055-3.377-.423-1.268.632-3.586 2.532-3.586 2.532s-3.373 1.687-4.641 1.473c-1.264-.209-8.433-1.687-8.433-1.687s-.426.845-6.541.845c-1.32 0-2.367-.067-3.242-.161a235.64 235.64 0 0 0-8.048 16.686 3961.952 3961.952 0 0 1 21.742 29.296c5.097-.258 37.886-1.04 59.919 19.019 5.879 5.351 11.002 12.165 14.618 20.893 0 0-.101.243-.232.673 2.517-2.333 7.199-4.304 12.464-6.686 6.537-2.954 9.704 1.477 10.968-3.796 1.264-5.273-1.264-6.537 1.477-6.327 2.741.209 4.637-1.055 5.273-3.164.636-2.105.209-2.105.423-3.164.213-1.051 0-.209 3.164-1.051 3.16-.844 1.051-.421-.213-2.743zm-85.42-46.188c-1.264-1.264-14.764-6.541-14.764-6.541-.213-2.109 4.85 0 6.118.213 1.264.209 5.692 2.109 7.382 2.954 1.691.846 2.532 4.642 1.264 3.374zm45.978-11.387c-.845.423-2.322.423-3.796.423-1.477 0-1.264-.213-4.005.423-2.741.632-3.377 1.055-4.85 1.687-1.477.632-.632 1.477-3.796 1.477-3.167 0-2.745-.419-5.063 0-2.322.423-3.377.845-5.277.845-1.896 0-2.951-.209-3.796-.209-.845 0-.845.423-3.586.845s-2.532.423-4.85.423c-2.322 0-5.063-.845-6.327-1.264-1.264-.419-4.009-1.687-4.641-2.109-.632-.419-3.586-2.741 0-2.105 1.264.224 2.528 1.264 4.428 1.687 1.9.419 3.586.419 4.641.419s4.005.213 5.273.213 3.377-1.477 6.537-1.264c3.164.213 2.322.841 3.377 1.264 1.055.423.845.845 2.954.213 2.109-.636 2.532-1.69 4.85-1.69 2.322 0 4.009-.419 5.482-.841 1.477-.423 4.009-1.687 4.009-1.687s2.109-.845 3.373-.845c1.264 0 2.109.419 3.16.845 1.062.405 2.749.828 1.903 1.25zm6.96-8.436c-1.477.628-6.537 1.055-7.378.841-.845-.213-1.268.423-4.641 1.264-3.373.845-9.068 2.322-8.436 1.055l6.327-2.532s4.846-1.896 6.114-1.896c1.264 0 6.75.845 7.382 1.055.632.209 2.109-.423.632.213z"/><path style="fill:#fffffd" d="M79.597 126.39c0-.632-1.264-1.477-1.9-1.896-.632-.423-5.482-1.058-5.482-1.058s-4.005-1.051-6.114-1.473c-2.109-.423-3.586-1.264-6.327-1.69-2.741-.423-2.741-.423-5.063-1.687-2.322-1.264-5.273-1.69-5.273-1.69s-2.109.213-7.386.632c-5.273.423-5.695 2.322-8.436 2.322-.841 0-1.698-.09-2.562-.206-.4.703-.815 1.399-1.208 2.105h8.833c1.055 0-1.477 1.264-4.009 1.264-1.903 0-3.927.479-6.066.894-.337.625-.639 1.271-.972 1.9.875.093 1.922.161 3.242.161 6.114 0 6.541-.845 6.541-.845s7.169 1.477 8.433 1.687c1.264.213 4.641-1.473 4.641-1.473s2.322-1.9 3.586-2.532c1.264-.632 2.109.209 3.377.423 1.264.209 2.528.423 4.005.632 1.473.213 4.428.632 6.75 1.477 2.319.841 4.641 1.473 5.695 1.896 1.055.419 2.954.209 4.637.209 1.694.003 1.058-.42 1.058-1.052zm51.101-2.378c.015.206.03.408.052.583l.138-.049c-.07-.179-.111-.351-.19-.534zm.195.535-.138.049c.135 1.114.4 1.66.811 2.416a11.36 11.36 0 0 0-.673-2.465z"/><path style="fill:#fffffd" d="M232.927 272.338c-2.951 0-8.65 0-10.755-.845-.961-.385-2.902-1.571-4.977-2.857-2.468-1.529-5.134-3.205-6.623-3.893-2.741-1.264-2.109-1.055-5.063-1.896-2.951-.845-6.114 1.051-6.114 1.051l-14.973-4.428s-21.727-8.436-24.042-9.278c-2.322-.845-10.755-6.75-14.977-8.018-4.218-1.264-8.65-6.327-11.81-7.378-3.164-1.055-9.072-8.859-10.336-11.813-1.264-2.954 1.9-3.164 3.799-3.164s6.327-2.532 6.327-2.532 1.477.423 2.741 1.058c1.264.632 2.109.419 4.431 1.264s.632.845.632 3.796 2.109 3.164 3.373 4.005c1.264.845 3.583 1.055 6.118 1.9 2.532.845 2.322-1.264 3.373-.845 1.055.423 2.741 5.273 2.741 5.273s2.954 2.741 4.428 4.641c1.473 1.9 1.9 1.264 4.85 2.954 2.954 1.687 1.687-.632 3.164-1.477 1.477-.845 1.477-1.9 5.482-4.009 4.005-2.109 1.055.632 2.741 1.9 1.687 1.264 2.954-.423 6.327-.423 3.377 0 2.109.209 5.909.209 3.799 0 2.319-.845 2.951.423.632 1.268 1.058 4.009 5.486 5.695 4.428 1.687 2.109-1.055 3.164-1.477 1.058-.419-2.741-2.741-1.055-3.796 1.687-1.055 1.896.632 5.063 2.532 3.16 1.9 5.482 2.109 7.591 1.9 2.109-.213 3.373-3.586 4.85-4.218 1.477-.632 3.377-3.796 3.377-3.796l3.164 1.477 2.322-2.741s0 7.804-.845 10.123-3.373 9.495-3.373 11.178c0 1.687 1.896 4.218 1.477 5.909-.423 1.687-2.954 2.319-4.009 3.373-1.055 1.055 1.055 4.218 1.055 4.218.15.127.247.202.381.31 2.678 2.218 2.12.576 5.74 1.38 3.796.845 2.319-.209 4.637-.632.733-.135 1.343-.426 1.888-.748a8.045 8.045 0 0 0 1.907-1.571s1.268-1.69 1.477-3.373c.213-1.69-2.109-1.264-3.164-1.69-1.055-.419-1.264-1.687-4.218-2.951s-2.741-3.586-2.741-3.586-.632-3.373-1.896-4.218c-1.264-.841 1.264-3.796 1.264-3.796l2.109-6.959v-7.801l.845-4.854 4.637-2.951-2.954-6.75s-1.477-3.586-1.477-4.218c0-.037-.022-.086-.026-.123a65.2 65.2 0 0 0-.509-1.025c-.288-.303-.669-.538-1.152-.538-1.055 0-.213 1.477-.213 1.477s-.845 1.477-2.105 2.741c-1.268 1.268-5.486-2.741-6.118-3.164-.621-.415-1.653-1.028-3.287-1.653l-.086-.034c-1.687-.628-1.687-1.051-3.796-.419-2.105.632 1.268 1.055 1.268 2.528 0 1.477-6.118-1.051-6.118-1.051s-4.428-2.745-6.537-4.854 1.477-4.005 1.477-4.005l-6.114-4.218c-5.482.845-8.014-2.322-8.014-2.322l2.109-3.164s-10.127 0-10.755-.209c-.632-.213-4.009-3.586-4.009-3.586s-1.687-1.687-3.377-2.954c-1.687-1.264-3.16-2.954-4.846-4.005-1.687-1.058-4.218-5.063-5.695-7.804s-5.905-10.964-7.169-13.919-3.586-6.114-3.586-6.114l3.799-4.641 2.532-2.532s-4.641-.419-5.695-1.051c-1.055-.632-1.264-2.326-1.264-2.326s1.687-1.473 3.586-1.896c1.896-.423 1.896-.845 2.109-2.322.209-1.477-5.909-1.9-5.909-1.9l-2.532-2.319-2.109-2.322s0-2.951.213-3.796c.213-.841 0-1.896-.632-2.105-.628-.213-2.737-.845-3.373-1.268-.632-.419-2.319-.845-2.319-.845-.423 1.477-2.741 0-2.741 0-2.532-1.477-.632-1.264-.632-1.264l-2.274-1.231-2.812-1.522c0 .763.022 1.335.06 1.84.079.183.12.355.191.535.34.875.561 1.698.673 2.461.333.613.755 1.372 1.286 2.756 0 0 2.954-.423 4.323 1.896.352.591-2.21 3.366-3.014 4.772-.176.31-.299.576-.251.711 1.791 5.482 6.858 12.127 7.909 14.132a254.56 254.56 0 0 1 3.081 6.099 248.77 248.77 0 0 1 2.823 5.92c1.055 2.319 2.319 3.796 3.164 6.118.845 2.319 2.741 4.641 2.741 6.75 0 2.105-5.695 6.959-4.431 9.278 1.264 2.322 3.373 1.896.209 2.745-3.164.841-2.951 0-3.164 1.051-.213 1.055.213 1.055-.423 3.164-.632 2.109-2.532 3.373-5.273 3.164s-.209 1.055-1.477 6.327c-1.264 5.273-4.431.845-10.968 3.796-5.269 2.378-9.947 4.353-12.464 6.686-.284.942-.703 2.861-.497 5.572.385 5.063 2.965 12.838 12.752 21.914 0 0 2.038 1.395 4.637 4.293 1.492 1.23 2.648 2.072 3.171 2.244 2.528.841 2.951 0 6.959.209 4.005.209 9.91 4.431 13.496 5.695 3.586 1.268 18.986 14.341 18.986 14.341s5.269.632 6.537.632c.804 0 1.578.411 2.109 1.361.307.546.553 1.223.632 2.225.209 2.741 1.055 2.319 3.796 5.06 2.741 2.745 1.687 0 3.373.845 1.69.845 1.687 2.532-.845 5.695-.123.157-.206.243-.31.374-.262.314-.486.58-.666.778 1.78.15 3.53.322 5.194.531 15.186 1.896 29.105-1.896 39.864-6.327.06-.022.105-.049.161-.075.606-.86 1.212-1.817 1.945-2.879 1.908-2.73-1.043-2.521-3.997-2.521z"/><path style="fill:#333534" d="M143.121 268.636c-1.305-12.034-6.608-20.037-10.59-24.483-2.595-2.898-4.637-4.293-4.637-4.293-9.783-9.076-12.367-16.847-12.752-21.914-.206-2.711.213-4.626.497-5.572.131-.43.232-.673.232-.673-3.616-8.728-8.739-15.542-14.618-20.893-22.037-20.059-54.822-19.278-59.919-19.019 3.605 4.906 4.424 11.028 8.003 15.957 11.881 16.368 22.666 36.334 31.476 49.549 0 0 6.6 3.025 9.973 10.284 4.375 2.39 15.878 2.977 26.162 8.668 6.926 3.829 14.592 8.1 22.232 12.393 1.372.77 2.737 1.541 4.102 2.311-.053-.774-.079-1.571-.161-2.315z"/><path style="fill:#354c3c" d="M182.667 294.271c-2.704 0-24.401-11.387-24.401-11.387s2.21-.064 5.695-.09c-6.271-3.661-13.391-7.722-20.687-11.843-1.365-.77-2.73-1.541-4.102-2.311a3744.329 3744.329 0 0 0-22.232-12.393 4775.95 4775.95 0 0 0-23.26-12.789c.228.486.479.946.677 1.466 0 0 .606 1.81 1.627 4.641 1.687 4.667 4.521 12.131 7.748 19.076.86 1.855 1.746 3.672 2.648 5.385 6.327 12.023 18.35 17.086 20.246 24.045.28 1.028.557 2.001.834 2.936 14.233-2.341 27.961-3.852 38.282-4.783 10.77-.972 17.83-1.316 17.83-1.316-.262-.196-.591-.42-.905-.637z"/><path style="fill:#090909" d="M127.463 301.002c-.277-.935-.553-1.907-.834-2.936-1.896-6.956-13.919-12.023-20.246-24.045a120.69 120.69 0 0 1-2.648-5.385c-3.224-6.944-6.062-14.412-7.748-19.076-1.021-2.831-1.627-4.641-1.627-4.641-.198-.52-.449-.976-.677-1.466-3.369-7.259-9.442-11.189-9.442-11.189-8.81-13.216-20.224-29.329-32.104-45.698-3.579-4.929-7.195-9.88-10.804-14.783a4079.021 4079.021 0 0 0-21.742-29.296c-.393.905-.808 1.791-1.189 2.704C7.292 171.637.908 200.54.153 230.846l60.402 42.908 54.848 31.162 12.494 4.54 2.528.632c0 .001-1.38-3.693-2.962-9.086z"/><path style="fill:#1e201f" d="M15.044 319.969c.079.206.161.408.239.613 2.715-.232 5.478-.467 8.321-.718-2.902.034-5.759.068-8.56.105zm102.098-17.131-9.917-6.103-45.66-28.099L.153 230.848c-.048 2-.153 3.982-.153 5.994 0 10.789.789 21.39 2.184 31.794a235.64 235.64 0 0 0 6.354 31.211c1.881 6.832 4.035 13.552 6.499 20.119 2.805-.034 5.662-.071 8.564-.108 40.197-3.556 91.16-8.99 102.105-10.168a2802.5 2802.5 0 0 1 2.184-.236l-10.748-6.616z"/><path style="fill:#272d17" d="M234.827 277.82c.049-.015.108-.049.157-.067l.004-.004c-.057.023-.102.049-.161.071zm-70.862 4.974c-3.485.026-5.695.09-5.695.09 2.016.153 4.181.247 6.402.325a37.459 37.459 0 0 0-.707-.415z"/><path style="fill:#2f381c" d="M328.185 293.613c1.395.015 2.184.026 2.184.026s-.935-.516-2.184-.026z"/><path style="fill:#2f381c" d="M462.234 241.999c-4.977 1.473-9.988 2.053-14.82 3.579-16.106 5.075-30.133 9.906-33.525 11.039-2.838.946-14.951 5.602-29.008 11.062-23.571 9.154-52.608 21.532-52.608 21.532s-2.595 1.328-5 4.39c-.561.714-1.096 1.552-1.604 2.457-.337.557-.669 1.2-.991 2.012-2.532 6.327 2.532 15.186 2.532 15.186 15.747 8.881 82.259 12.872 128.331 14.596a235.824 235.824 0 0 0 6.698-18.212 235.371 235.371 0 0 0 9.263-40.997c1.2-8.956 1.9-18.07 2.072-27.314.015-.864.06-1.72.067-2.584a514.545 514.545 0 0 0-11.407 3.254z"/><path style="fill:#fffffd" d="m423.791 119.509-.254-1.784s-4.772-2.199-7.303-2.412c-2.532-.209-3.796 1.055-4.641 1.477-.845.419-2.105 1.055-3.373.845-1.264-.213-8.014 5.482-12.232 7.169-4.218 1.687-11.6 5.482-13.496 5.482-1.9 0-5.695-.209-8.436 1.055-2.745 1.268-15.609 5.695-17.718 7.172-2.109 1.477-7.591 6.327-17.296 7.591-5.755.752-18.9 3.47-30.354 3.568-.213 0-.438.019-.647.019-6.2 0-.703 17.961 2.547 22.138 0 0 10.441 2.846 17.086-1.896 6.645-4.749-1.9-2.85 6.645-4.749 8.541-1.9 14.237.95 14.237.95s9.495 7.595 15.19 2.85c5.692-4.749 9.491-8.545 13.29-11.391 3.796-2.85 16.133-12.341 16.133-12.341s0-1.896 9.495-8.545c9.495-6.641 18.032-6.641 18.032-6.641l3.799-5.695-.704-4.862z"/></svg>